<?xml version="1.0" encoding="utf-8"?>
<!-- Generator: Adobe Illustrator 23.1.0, SVG Export Plug-In . SVG Version: 6.00 Build 0)  -->
<svg version="1.1" xmlns="http://www.w3.org/2000/svg" xmlns:xlink="http://www.w3.org/1999/xlink" x="0px" y="0px"
	 viewBox="0 0 750 500" style="enable-background:new 0 0 750 500;" xml:space="preserve">
<style type="text/css">
	.st0{fill:#FEF0DD;}
	.st1{opacity:0.3;fill:#B8C1CE;}
	.st2{fill:url(#SVGID_1_);}
	.st3{fill:url(#SVGID_2_);}
	.st4{fill:#4B6DB1;}
	.st5{fill:url(#SVGID_3_);}
	.st6{fill:url(#SVGID_4_);}
	.st7{fill:url(#SVGID_5_);}
	.st8{fill:url(#SVGID_6_);}
	.st9{fill:#102866;}
	.st10{fill:url(#SVGID_7_);}
	.st11{fill:url(#SVGID_8_);}
	.st12{fill:url(#SVGID_9_);}
	.st13{display:none;}
	.st14{display:inline;}
	.st15{fill:#9FB8C8;}
</style>
<g id="BACKGROUNDv">
	<rect x="0.1" class="st0" width="750" height="500"/>
</g>
<g id="OBJECTS">
	<g>
		<g>
			<path class="st1" d="M0.8,85.8c0,0,35.3,1,51.3,0s32.5-4,32.5-4s30-5,64-3.5s81-1,81-1s32,2,56,2s75.5,6.5,75.5,6.5h61l-137-25
				c0,0-24-9-41.5-10s-49.2-1.5-49.2-1.5l-70.3-2.5l-51.5-2.5L0.5,39.8V0c0,0,207.1,30.8,221.6,28.3s47.5-1.5,71-2s25.5-1.5,44-3.5
				s72.5,17.5,102,22s137,17,162,18.5c25,1.5,149.4,0.5,149.4,0.5v29.8c0,0-90.4-6.8-118.4-5.8s-89,5.8-89,5.8s-46.5,11.2-79,14.2
				s-100-2-126.5-5.5s-158-8-186.5-8.7c-28.5-0.8-67.5,6.2-67.5,6.2l-82.8,8.9V85.8z"/>
			<path class="st1" d="M362.1,0c0,0,92.5,21.8,122.5,24.3c30,2.5,40-2,71.5-0.5s43,0,66.5,2.5s70,8.5,70,8.5l57.9,5.5V0H362.1z"/>
			<linearGradient id="SVGID_1_" gradientUnits="userSpaceOnUse" x1="371.8692" y1="296.1802" x2="379.248" y2="158.0923">
				<stop  offset="0" style="stop-color:#9CB3D3"/>
				<stop  offset="0.367" style="stop-color:#91ABCF"/>
				<stop  offset="1" style="stop-color:#7495C3"/>
			</linearGradient>
			<path class="st2" d="M0.5,142.7c0,0,23.7,10.5,27.8,10.5c4.1,0,23.4-5.9,39.8-10.5c16.4-4.7,38.7-7.6,38.7-7.6s19.9-18.7,27-18.7
				s27,14.6,29.9,16.4c2.9,1.8,11.1,2.9,11.1,2.9l8.8-1.8c0,0,22.3,4.1,33.4,3.5c11.1-0.6,19.3-1.8,21.1-1.8
				c1.8,0,14.1,0.6,14.1,0.6l48.6-22.9h14.6c0,0,13.5-4.7,15.2-4.7c1.8,0,24,18.1,24,18.1h20.8l9.7,2.4l9.4,8.8l15.8,3.5l29.3,6.4
				c0,0,35.7,1.8,52.7-4.7c17-6.4,26.4-8.8,26.4-8.8l12.9-1.8l10-4.3l12.3,3.1l20.5,5.3c0,0,41.6,18.2,44.5,15.8
				c2.9-2.3,37.5-8.2,37.5-8.2l24.6-8.2l17-5.5l30.5,7.2l22,4.7v171.1H0.5V142.7z"/>
			<linearGradient id="SVGID_2_" gradientUnits="userSpaceOnUse" x1="472.4422" y1="210.2293" x2="492.9422" y2="189.2293">
				<stop  offset="0" style="stop-color:#9CB3D3"/>
				<stop  offset="0.367" style="stop-color:#91ABCF;stop-opacity:0.633"/>
				<stop  offset="1" style="stop-color:#7495C3;stop-opacity:0"/>
			</linearGradient>
			<path class="st3" d="M436.8,187.8c0,0,19.2,4.6,23.3,0c4.2-4.6-5-6.7-5-6.7s0.8-5.8-1.3-7.9c-2.1-2.1-4.9-7.5-4.9-7.5
				s10.8,7.9,12.2,8.8c1.4,0.8-5.2,4.6,0,6.3c5.2,1.7,10.2,6.7,14.3,7.1c4.2,0.4,11.3,2.8,12.9,2c1.7-0.8,20.4-3.3,20.4-3.3
				s-12.5,6.3-12.5,10.4s5.4,7.9,10.4,12.9c5,5,16.7,16.7,16.7,16.7s-23.8-10.8-32.5-17.5c-8.8-6.7-13.3-12.1-22.1-12.1
				C460.1,197,436.8,187.8,436.8,187.8z"/>
			<path class="st4" d="M0.8,192.8c0,0,24.2,5.7,33.6,6.8c9.3,1.2,40,0,40,0l51.3,7.8l70.7,16.6l76.7-31.3l54.7-11.3l34.7-14.7
				l38.9,2l39.1,15.3l34.7,15.5l44,8.5l62,20.7l48.7,4.7c0,0,17.3-13.3,28-16.7c10.7-3.3,37.3-10.7,37.3-10.7l55.5-50.7v190.7H0.3
				L0.8,192.8z"/>
			<linearGradient id="SVGID_3_" gradientUnits="userSpaceOnUse" x1="503.2414" y1="452.4999" x2="503.2414" y2="255.4977">
				<stop  offset="0" style="stop-color:#7495C3"/>
				<stop  offset="0.2783" style="stop-color:#698ABD"/>
				<stop  offset="0.7677" style="stop-color:#4B6CAC"/>
				<stop  offset="1" style="stop-color:#3B5CA3"/>
			</linearGradient>
			<path class="st5" d="M750.5,213.7c0,0-16.7,28-25.5,28.9c-8.8,0.9-24.6,16.3-24.6,16.3l-20,5.3l-29.3,4.6c0,0-33.8-5.4-53.4-14.5
				c-19.5-9-22.1-22.6-42.9-22.6c-20.8,0-22.1-4.5-38.5-0.9c-16.4,3.6-38.5,4.5-38.5,4.5s-27.1,5.4-44.8-5.4
				c-17.6-10.8-24.7-23.6-46.1-24.5c-21.4-0.9-28.8-12.6-48,0c-19.2,12.6-58.7,34-58.7,34l-5.4,23L256,277v83.9h494.5V213.7z"/>
			<linearGradient id="SVGID_4_" gradientUnits="userSpaceOnUse" x1="179.6875" y1="361.0357" x2="195.6875" y2="248.0357">
				<stop  offset="0" style="stop-color:#7495C3"/>
				<stop  offset="0.2397" style="stop-color:#6A8ABC"/>
				<stop  offset="0.661" style="stop-color:#4F6CA9"/>
				<stop  offset="1" style="stop-color:#355097"/>
			</linearGradient>
			<path class="st6" d="M0.5,270.7c0,0,19-7.8,34.9-15.6c15.9-7.8,53.9-24.5,53.9-24.5s47.6-34.5,66.6-34.5
				c19,0,45.2,11.1,45.2,11.1s30.1,7.8,37.3,7.8c7.1,0,4.8,8.9,23.8,8.9c19,0,25.4-3.3,35.7,2.2c10.3,5.6,25.4,7.2,25.4,7.2
				l27.8,26.1c0,0,16.7,16.7,24.6,21.1c7.9,4.5,5.6,13.4,5.6,13.4s-60.3,24.5-96.7,24.5s-283.9,0-283.9,0V270.7z"/>
			<linearGradient id="SVGID_5_" gradientUnits="userSpaceOnUse" x1="369.8395" y1="390.7963" x2="372.8395" y2="297.7964">
				<stop  offset="0" style="stop-color:#7495C3"/>
				<stop  offset="0.22" style="stop-color:#6A8ABC"/>
				<stop  offset="0.6083" style="stop-color:#506CAA"/>
				<stop  offset="1" style="stop-color:#304893"/>
			</linearGradient>
			<path class="st7" d="M0.8,306.2c0,0,87.7-34.3,108.7-36.3c20.9-2,27.7-10.6,59.4-2c31.7,8.6,82.3,24.4,97.2,23.8
				c14.8-0.7,32.4-9.2,62.8-15.2c30.4-5.9,40.5-15.2,68.8-7.3c28.3,7.9,45.7,20.5,61.3,20.5c15.6,0,17.7-4,32.5,0
				c14.8,4,25.6,4.6,37.8,5.9c12.1,1.3,25,3.3,41.2,5.9c16.2,2.6,56-27,79-25.7c22.9,1.3,42.5,15.2,55.3,19.8
				c12.8,4.6,38.9,32.8,38.9,32.8l-66.6,50.3l-642.6,4.6L0.8,306.2z"/>
			<linearGradient id="SVGID_6_" gradientUnits="userSpaceOnUse" x1="388.7166" y1="538.446" x2="400.5877" y2="358.8931">
				<stop  offset="0" style="stop-color:#7495C3"/>
				<stop  offset="0.1837" style="stop-color:#6A8ABA"/>
				<stop  offset="0.5079" style="stop-color:#4F6CA3"/>
				<stop  offset="0.9319" style="stop-color:#233C7E"/>
				<stop  offset="1" style="stop-color:#1B3477"/>
			</linearGradient>
			<path class="st8" d="M63.9,336.6c0,0,35.6-6.4,55.7-6.4c20.2,0,49.4,2.7,75.4-5.3s30.2-7.4,55.2-4.2c24.9,3.2,55.3,8.1,55.3,8.1
				s36.5,6.3,55.6,7.9c19.1,1.6,44.6,0,44.6,0s44-8,64.7-5.8s29.7,14.3,53.6,18.6c23.9,4.2,38.2,7.4,49.9,6.4
				c11.7-1.1,28.7-11.1,48.8-16.5c20.2-5.3,38.7-15.4,88.1,3.7c49.4,19.1,17.5,30.2,17.5,30.2s-149.1,66.3-266.4,72.7
				c-117.3,6.4-254.7-2.1-254.7-2.1L85.7,413.6L63.9,336.6z"/>
			<path class="st9" d="M0.5,291.5c0,0,4.6-0.5,11.8,0c7.2,0.5,15.1,17,17,17.5c1.9,0.5,2.9,1.9,3.3,3.4c0.3,1.5,5.1,11.5,7.5,12.7
				c2.4,1.2,2.9,0.2,4.1,1.5s2.7,2.4,2.7,0.9c0-1.5,2.4-9.6,4.8-6s2.6,11.8,4.6,11.2c2.1-0.7,4.8-4.3,7.9-4.4
				c3.1-0.1,5.3-0.8,5.8-1.3c0.5-0.5,4.3-3.6,7-4.3c2.7-0.7,3.4-3.1,6.7-3.8c3.3-0.7,9.8,0.9,10.5,2.4c0.7,1.5,2.6,5.7,4.8,6.3
				c2.2,0.7,2.4,4.1,4.5,6.5s10.3,6.3,15.3,10.3c5,3.9,7.9,7.2,9.4,7c1.5-0.2,1.4-2.4,1.4-2.4l1-2.2h2.6l0.5,2.1v2.6l-0.7,1.5
				l2.6,2.2c0,0,4.8,5.7,8.9,6c4.1,0.3,3.3-1.7,6.9,0c3.6,1.7,3.9,1.4,8.6,1.9c4.6,0.5,7.7-2.2,12-2.1c4.3,0.2,10.8,1.8,14.4,2.1
				c3.6,0.3,6.5-0.2,8.8,0.8c2.2,1,3.3,2.1,6.7,4.3c3.4,2.2,12.5,3.1,18.5,6.9c6,3.8,20.4,15.1,25.6,16.8
				c5.1,1.7,32.1,12.2,36.9,12.5c4.8,0.3,4.3-1.5,8.8,0c4.5,1.5,24.7,9.4,37.1,8.9c12.4-0.5,42.4,0.9,54.2,0
				c11.8-0.9,16-2.9,21.8-5.3c5.8-2.4,22.8-5.1,29.7-6c6.9-0.9,11.3-3.8,18.2-3.1c6.9,0.7,20.4,6.3,26.4,9.1c6,2.7,28.5,8.7,38,6.9
				c9.5-1.8,11.3-6.7,22.1-8.8c10.8-2.1,25.7,2.3,33.7,0.5c8-1.8,17.5-9,17.5-9s8.2-2.8,10-5.1c1.8-2.3,10.8-9.8,10.8-9.8
				s10.6-3.6,19-3.6c8.5,0,16.5-6.2,16.5-6.2s22.9-1,33.2-7.7c10.3-6.7,18-12,18-12s33.7-20.9,38.3-26.6c4.6-5.7,14.2-8.8,14.2-8.8
				v182H0.5V291.5z"/>
			<linearGradient id="SVGID_7_" gradientUnits="userSpaceOnUse" x1="108.3013" y1="182.8041" x2="75.3013" y2="193.304">
				<stop  offset="0" style="stop-color:#9CB3D3"/>
				<stop  offset="0.367" style="stop-color:#91ABCF;stop-opacity:0.633"/>
				<stop  offset="1" style="stop-color:#7495C3;stop-opacity:0"/>
			</linearGradient>
			<path class="st10" d="M63.9,168.8c0,0,12.4,10.7,17.7,13.3c5.3,2.7,17.3,9.3,17.3,9.3l22.1,15.3c0,0-30.5-7.3-39.6-15.3
				s-17.5-11.3-17.5-11.3V168.8z"/>
		</g>
		<linearGradient id="SVGID_8_" gradientUnits="userSpaceOnUse" x1="238.8917" y1="280.4104" x2="234.5647" y2="291.8463">
			<stop  offset="0" style="stop-color:#7495C3"/>
			<stop  offset="0.2754" style="stop-color:#698ABD;stop-opacity:0.7217"/>
			<stop  offset="0.7598" style="stop-color:#4B6CAC;stop-opacity:0.2323"/>
			<stop  offset="0.9897" style="stop-color:#3B5CA3;stop-opacity:0"/>
		</linearGradient>
		<path class="st11" d="M161.6,266.2c8.5,4.3,24.6,11.7,41.4,16.1c24.8,6.5,42.4,12.9,56.9,15.5c14.5,2.7,51,12,50.8,11.5
			c-0.2-0.5-31.7-10-38-12.3c-5.9-2.2-10.1-3.3-7.1-5.3c-15.3,0.4-65.3-15.3-96.8-23.8C166.2,267.3,163.8,266.7,161.6,266.2z"/>
		<linearGradient id="SVGID_9_" gradientUnits="userSpaceOnUse" x1="321.8922" y1="363.1471" x2="323.8838" y2="333.024">
			<stop  offset="0" style="stop-color:#7495C3"/>
			<stop  offset="0.1837" style="stop-color:#6A8ABA"/>
			<stop  offset="0.5079" style="stop-color:#4F6CA3"/>
			<stop  offset="0.9319" style="stop-color:#233C7E"/>
			<stop  offset="1" style="stop-color:#1B3477"/>
		</linearGradient>
		<path class="st12" d="M397,354.3c-12.3-4.8-31.8-15.8-34-17.5l0,0c-0.6,0-1.3-0.1-1.9-0.1c-19.1-1.6-55.6-7.9-55.6-7.9
			s-30.4-4.9-55.3-8.1c0,0,99.6,18.8,105.6,21.7S397,354.3,397,354.3z"/>
	</g>
</g>
<g id="DESIGNED_BY_FREEPIK" class="st13">
	<g class="st14">
		<g id="XMLID_1_">
			<g id="XMLID_20_">
				<path id="XMLID_28_" class="st15" d="M385.1,465.5c-0.4,0.4-0.8,0.9-1.1,1.5l-0.5-0.2c-0.1-0.3-0.3-0.5-0.7-0.5
					c-0.3,0-0.6,0.3-0.5,0.7c0,0.3,0.3,0.6,0.7,0.5c0.1,0,0.1,0,0.2-0.1l0.5,0.2c-0.3,0.6-0.4,1.1-0.5,1.7l0.7,0.1
					c0.2-1.3,0.8-2.5,1.8-3.5L385.1,465.5z"/>
				<path id="XMLID_27_" class="st15" d="M390.6,463.2c-0.2,0-0.3,0-0.5,0l-0.1-0.6c0.2-0.1,0.3-0.4,0.3-0.6c0-0.4-0.4-0.7-0.8-0.6
					c-0.4,0-0.7,0.4-0.6,0.8c0,0.3,0.2,0.5,0.4,0.6l0.1,0.6c-0.7,0.1-1.4,0.3-2.1,0.6l0.3,0.7c0.9-0.4,1.9-0.7,3-0.7
					c0.5,0,1,0.1,1.5,0.2l0.2-0.7C391.7,463.2,391.1,463.2,390.6,463.2z"/>
				<path id="XMLID_26_" class="st15" d="M397.2,465.7c0.3,0,0.6-0.3,0.5-0.7c0-0.3-0.3-0.6-0.7-0.5c-0.3,0-0.5,0.3-0.5,0.6
					l-0.4,0.4c-0.4-0.4-0.9-0.8-1.4-1.1l-0.4,0.6c1.1,0.7,2,1.7,2.6,2.9l0.7-0.3c-0.3-0.6-0.6-1.1-0.9-1.5l0.4-0.4
					C397.1,465.7,397.1,465.7,397.2,465.7z"/>
				<path id="XMLID_25_" class="st15" d="M390,473.4c-0.4,0-0.8,0-1.2,0c-0.9,0-1.7-0.1-2.5-0.2c-0.4-0.1-0.8-0.2-1.3-0.3
					c1,1.9,3.1,3.1,5.4,3.1c2.9,0,5.3-1.9,5.9-4.5c-0.7,0.4-1.5,0.8-2.5,1.1C392.8,473,391.5,473.3,390,473.4z"/>
				<path id="XMLID_21_" class="st15" d="M390.6,464.7c-3.4,0-6.1,2.7-6.1,5.9c0,0.4,0,0.8,0.1,1.3c0.7,0.5,2.7,0.9,5.3,0.7
					c2.9-0.2,5.3-1,6.7-2.2c0-0.2,0-0.4,0-0.6C396.2,466.9,393.6,464.7,390.6,464.7z M388.4,471.2c-1,0-1.8-0.8-1.8-1.8
					c0-1,0.8-1.9,1.8-1.9c1,0,1.8,0.8,1.8,1.9C390.3,470.4,389.5,471.2,388.4,471.2z M393.2,470.3c-0.8,0-1.4-0.6-1.4-1.4
					s0.6-1.4,1.4-1.4s1.4,0.6,1.4,1.4S393.9,470.3,393.2,470.3z"/>
			</g>
			<path id="XMLID_18_" class="st15" d="M406.6,466.5c-0.3-0.1-0.8-0.3-1.4-0.2c-0.6,0.1-0.8,0.3-0.8,1v0.9h2.2v1.7h-2.2v5.5h-1.9
				v-5.5h-1.3v-1.7h1.3v-0.9c0-1.7,0.9-2.8,2.6-2.8c0.6,0,1.2,0.1,1.6,0.3V466.5z"/>
			<path id="XMLID_16_" class="st15" d="M411.3,469.9c-0.2,0-0.4,0-0.5,0c-0.9,0-1.5,0.5-1.5,1.6v3.9h-1.9v-7.2h1.9v0.8
				c0.5-0.7,1.1-1,2-1c0.4,0,0.8,0.1,1.1,0.3L411.3,469.9z"/>
			<path id="XMLID_13_" class="st15" d="M419,471.8c0,0.2,0,0.5,0,0.7h-5.1c0.2,1,0.9,1.5,1.8,1.5c0.6,0,1.3-0.3,1.8-0.7l1.1,1.2
				c-0.8,0.7-1.9,1.1-3.1,1.1c-2.2,0-3.7-1.5-3.7-3.8c0-2.3,1.5-3.8,3.6-3.8C417.5,468,419,469.5,419,471.8z M413.9,471.1h3.2
				c-0.2-0.9-0.7-1.4-1.6-1.4C414.6,469.7,414,470.2,413.9,471.1z"/>
			<path id="XMLID_10_" class="st15" d="M426.6,471.8c0,0.2,0,0.5,0,0.7h-5.1c0.2,1,0.9,1.5,1.8,1.5c0.6,0,1.3-0.3,1.8-0.7l1.1,1.2
				c-0.8,0.7-1.9,1.1-3.1,1.1c-2.2,0-3.7-1.5-3.7-3.8c0-2.3,1.5-3.8,3.6-3.8C425.2,468,426.6,469.5,426.6,471.8z M421.5,471.1h3.2
				c-0.2-0.9-0.7-1.4-1.6-1.4C422.2,469.7,421.7,470.2,421.5,471.1z"/>
			<path id="XMLID_7_" class="st15" d="M435,471.8c0,2.2-1.5,3.8-3.5,3.8c-1,0-1.6-0.4-2.1-0.9v3.7h-1.9v-10.1h1.9v0.8
				c0.5-0.6,1.2-1,2.1-1C433.5,468,435,469.6,435,471.8z M429.3,471.8c0,1.1,0.7,2,1.8,2c1.1,0,1.8-0.9,1.8-2c0-1.1-0.7-2-1.8-2
				C430,469.8,429.3,470.6,429.3,471.8z"/>
			<path id="XMLID_4_" class="st15" d="M438.1,465.8c0,0.7-0.5,1.2-1.2,1.2c-0.7,0-1.2-0.5-1.2-1.2c0-0.7,0.5-1.2,1.2-1.2
				C437.5,464.6,438.1,465.1,438.1,465.8z M437.8,475.4h-1.9v-7.2h1.9V475.4z"/>
			<path id="XMLID_2_" class="st15" d="M441,470.7l2.7-2.6h2.4l-3.5,3.4l3.5,3.8h-2.4l-2.7-2.9v2.9h-1.9v-10.7h1.9V470.7z"/>
		</g>
		<g>
			<path class="st15" d="M309.4,475.3v-1.1c-0.5,0.7-1.4,1.2-2.4,1.2c-1.8,0-3.1-1.4-3.1-3.7c0-2.3,1.3-3.7,3.1-3.7
				c1,0,1.8,0.5,2.4,1.2v-3.8h1.1v9.8H309.4z M309.4,473.4v-3.2c-0.4-0.6-1.2-1.1-2.1-1.1c-1.4,0-2.3,1.2-2.3,2.7
				c0,1.6,0.8,2.7,2.3,2.7C308.2,474.5,309,474,309.4,473.4z"/>
			<path class="st15" d="M311.9,471.7c0-2.1,1.5-3.7,3.5-3.7c2.1,0,3.4,1.7,3.4,3.8v0.3h-5.7c0.1,1.3,1,2.4,2.5,2.4
				c0.8,0,1.6-0.3,2.2-0.9l0.5,0.7c-0.7,0.7-1.7,1.1-2.8,1.1C313.4,475.5,311.9,474,311.9,471.7z M315.4,468.9
				c-1.5,0-2.3,1.3-2.3,2.4h4.6C317.7,470.3,317,468.9,315.4,468.9z"/>
			<path class="st15" d="M319.6,474.4l0.6-0.8c0.5,0.5,1.4,1,2.3,1c1.1,0,1.7-0.5,1.7-1.2c0-1.7-4.4-0.7-4.4-3.3c0-1.1,1-2,2.6-2
				c1.2,0,2.1,0.5,2.6,1l-0.5,0.8c-0.4-0.5-1.2-0.9-2.1-0.9c-1,0-1.6,0.5-1.6,1.1c0,1.6,4.4,0.5,4.4,3.3c0,1.2-1,2.1-2.8,2.1
				C321.3,475.5,320.3,475.1,319.6,474.4z"/>
			<path class="st15" d="M326.5,466.5c0-0.4,0.3-0.7,0.7-0.7c0.4,0,0.7,0.3,0.7,0.7c0,0.4-0.3,0.7-0.7,0.7
				C326.8,467.2,326.5,466.9,326.5,466.5z M326.7,475.3v-7.1h1.1v7.1H326.7z"/>
			<path class="st15" d="M329.6,477.1l0.6-0.8c0.6,0.7,1.3,1,2.3,1c1.2,0,2.3-0.6,2.3-2.1v-1c-0.5,0.7-1.4,1.3-2.4,1.3
				c-1.8,0-3.1-1.4-3.1-3.7c0-2.3,1.3-3.7,3.1-3.7c1,0,1.8,0.5,2.4,1.2v-1.1h1.1v6.9c0,2.3-1.6,3.1-3.4,3.1
				C331.2,478.2,330.4,477.9,329.6,477.1z M334.7,473.3v-3.1c-0.4-0.6-1.2-1.1-2.1-1.1c-1.4,0-2.3,1.1-2.3,2.7
				c0,1.6,0.8,2.7,2.3,2.7C333.5,474.4,334.3,473.9,334.7,473.3z"/>
			<path class="st15" d="M342.4,475.3v-4.6c0-1.2-0.6-1.6-1.6-1.6c-0.9,0-1.7,0.5-2.1,1.1v5.2h-1.1v-7.1h1.1v1
				c0.5-0.6,1.5-1.2,2.5-1.2c1.5,0,2.3,0.7,2.3,2.3v5H342.4z"/>
			<path class="st15" d="M344.9,471.7c0-2.1,1.5-3.7,3.5-3.7c2.1,0,3.4,1.7,3.4,3.8v0.3h-5.7c0.1,1.3,1,2.4,2.5,2.4
				c0.8,0,1.6-0.3,2.2-0.9l0.5,0.7c-0.7,0.7-1.7,1.1-2.8,1.1C346.4,475.5,344.9,474,344.9,471.7z M348.4,468.9
				c-1.5,0-2.3,1.3-2.3,2.4h4.6C350.7,470.3,350,468.9,348.4,468.9z"/>
			<path class="st15" d="M358.4,475.3v-1.1c-0.5,0.7-1.4,1.2-2.4,1.2c-1.8,0-3.1-1.4-3.1-3.7c0-2.3,1.3-3.7,3.1-3.7
				c1,0,1.8,0.5,2.4,1.2v-3.8h1.1v9.8H358.4z M358.4,473.4v-3.2c-0.4-0.6-1.2-1.1-2.1-1.1c-1.4,0-2.3,1.2-2.3,2.7
				c0,1.6,0.8,2.7,2.3,2.7C357.1,474.5,358,474,358.4,473.4z"/>
			<path class="st15" d="M364.7,475.3v-9.8h1.1v3.8c0.6-0.8,1.4-1.2,2.4-1.2c1.8,0,3.1,1.5,3.1,3.7c0,2.3-1.3,3.7-3.1,3.7
				c-1,0-1.9-0.5-2.4-1.2v1.1H364.7z M367.9,474.5c1.4,0,2.3-1.2,2.3-2.7c0-1.6-0.8-2.7-2.3-2.7c-0.9,0-1.7,0.5-2.1,1.1v3.2
				C366.2,474,367,474.5,367.9,474.5z"/>
			<path class="st15" d="M372.5,477.1c0.2,0.1,0.4,0.1,0.6,0.1c0.5,0,0.8-0.2,1.1-0.7l0.5-1.1l-3-7.1h1.2l2.4,5.8l2.3-5.8h1.2
				l-3.5,8.5c-0.4,1-1.1,1.4-2.1,1.4c-0.2,0-0.6,0-0.8-0.1L372.5,477.1z"/>
		</g>
	</g>
</g>
</svg>
