<svg xmlns="http://www.w3.org/2000/svg" viewBox="0 0 750 500"><style>.st1{opacity:.3;fill:#b8c1ce}.st15{fill:#9fb8c8}</style><path fill="#fef0dd" d="M.1 0h750v500H.1z" id="BACKGROUNDv"/><g id="OBJECTS"><path class="st1" d="M.8 85.8s35.3 1 51.3 0 32.5-4 32.5-4 30-5 64-3.5 81-1 81-1 32 2 56 2 75.5 6.5 75.5 6.5h61l-137-25s-24-9-41.5-10-49.2-1.5-49.2-1.5l-70.3-2.5-51.5-2.5L.5 39.8V0s207.1 30.8 221.6 28.3 47.5-1.5 71-2 25.5-1.5 44-3.5 72.5 17.5 102 22 137 17 162 18.5 149.4.5 149.4.5v29.8s-90.4-6.8-118.4-5.8-89 5.8-89 5.8-46.5 11.2-79 14.2-100-2-126.5-5.5-158-8-186.5-8.7c-28.5-.8-67.5 6.2-67.5 6.2L.8 108.7V85.8zM362.1 0s92.5 21.8 122.5 24.3 40-2 71.5-.5 43 0 66.5 2.5 70 8.5 70 8.5l57.9 5.5V0H362.1z"/><linearGradient id="SVGID_1_" gradientUnits="userSpaceOnUse" x1="371.869" y1="296.18" x2="379.248" y2="158.092"><stop offset="0" stop-color="#9cb3d3"/><stop offset=".367" stop-color="#91abcf"/><stop offset="1" stop-color="#7495c3"/></linearGradient><path d="M.5 142.7s23.7 10.5 27.8 10.5c4.1 0 23.4-5.9 39.8-10.5 16.4-4.7 38.7-7.6 38.7-7.6s19.9-18.7 27-18.7 27 14.6 29.9 16.4c2.9 1.8 11.1 2.9 11.1 2.9l8.8-1.8s22.3 4.1 33.4 3.5c11.1-.6 19.3-1.8 21.1-1.8 1.8 0 14.1.6 14.1.6l48.6-22.9h14.6s13.5-4.7 15.2-4.7c1.8 0 24 18.1 24 18.1h20.8l9.7 2.4 9.4 8.8 15.8 3.5 29.3 6.4s35.7 1.8 52.7-4.7c17-6.4 26.4-8.8 26.4-8.8l12.9-1.8 10-4.3 12.3 3.1 20.5 5.3s41.6 18.2 44.5 15.8c2.9-2.3 37.5-8.2 37.5-8.2L681 136l17-5.5 30.5 7.2 22 4.7v171.1H.5V142.7z" fill="url(#SVGID_1_)"/><linearGradient id="SVGID_2_" gradientUnits="userSpaceOnUse" x1="472.442" y1="210.229" x2="492.942" y2="189.229"><stop offset="0" stop-color="#9cb3d3"/><stop offset=".367" stop-color="#91abcf" stop-opacity=".633"/><stop offset="1" stop-color="#7495c3" stop-opacity="0"/></linearGradient><path d="M436.8 187.8s19.2 4.6 23.3 0c4.2-4.6-5-6.7-5-6.7s.8-5.8-1.3-7.9c-2.1-2.1-4.9-7.5-4.9-7.5s10.8 7.9 12.2 8.8c1.4.8-5.2 4.6 0 6.3 5.2 1.7 10.2 6.7 14.3 7.1 4.2.4 11.3 2.8 12.9 2 1.7-.8 20.4-3.3 20.4-3.3s-12.5 6.3-12.5 10.4 5.4 7.9 10.4 12.9l16.7 16.7s-23.8-10.8-32.5-17.5c-8.8-6.7-13.3-12.1-22.1-12.1-8.6 0-31.9-9.2-31.9-9.2z" fill="url(#SVGID_2_)"/><path d="M.8 192.8s24.2 5.7 33.6 6.8c9.3 1.2 40 0 40 0l51.3 7.8 70.7 16.6 76.7-31.3 54.7-11.3 34.7-14.7 38.9 2 39.1 15.3 34.7 15.5 44 8.5 62 20.7 48.7 4.7s17.3-13.3 28-16.7c10.7-3.3 37.3-10.7 37.3-10.7l55.5-50.7V346H.3l.5-153.2z" fill="#4b6db1"/><linearGradient id="SVGID_3_" gradientUnits="userSpaceOnUse" x1="503.241" y1="452.5" x2="503.241" y2="255.498"><stop offset="0" stop-color="#7495c3"/><stop offset=".278" stop-color="#698abd"/><stop offset=".768" stop-color="#4b6cac"/><stop offset="1" stop-color="#3b5ca3"/></linearGradient><path d="M750.5 213.7s-16.7 28-25.5 28.9c-8.8.9-24.6 16.3-24.6 16.3l-20 5.3-29.3 4.6s-33.8-5.4-53.4-14.5c-19.5-9-22.1-22.6-42.9-22.6-20.8 0-22.1-4.5-38.5-.9s-38.5 4.5-38.5 4.5-27.1 5.4-44.8-5.4c-17.6-10.8-24.7-23.6-46.1-24.5-21.4-.9-28.8-12.6-48 0s-58.7 34-58.7 34l-5.4 23L256 277v83.9h494.5V213.7z" fill="url(#SVGID_3_)"/><linearGradient id="SVGID_4_" gradientUnits="userSpaceOnUse" x1="179.688" y1="361.036" x2="195.688" y2="248.036"><stop offset="0" stop-color="#7495c3"/><stop offset=".24" stop-color="#6a8abc"/><stop offset=".661" stop-color="#4f6ca9"/><stop offset="1" stop-color="#355097"/></linearGradient><path d="M.5 270.7s19-7.8 34.9-15.6c15.9-7.8 53.9-24.5 53.9-24.5s47.6-34.5 66.6-34.5c19 0 45.2 11.1 45.2 11.1s30.1 7.8 37.3 7.8c7.1 0 4.8 8.9 23.8 8.9s25.4-3.3 35.7 2.2c10.3 5.6 25.4 7.2 25.4 7.2l27.8 26.1s16.7 16.7 24.6 21.1c7.9 4.5 5.6 13.4 5.6 13.4s-60.3 24.5-96.7 24.5H.7v-47.7z" fill="url(#SVGID_4_)"/><linearGradient id="SVGID_5_" gradientUnits="userSpaceOnUse" x1="369.839" y1="390.796" x2="372.839" y2="297.796"><stop offset="0" stop-color="#7495c3"/><stop offset=".22" stop-color="#6a8abc"/><stop offset=".608" stop-color="#506caa"/><stop offset="1" stop-color="#304893"/></linearGradient><path d="M.8 306.2s87.7-34.3 108.7-36.3c20.9-2 27.7-10.6 59.4-2s82.3 24.4 97.2 23.8c14.8-.7 32.4-9.2 62.8-15.2 30.4-5.9 40.5-15.2 68.8-7.3 28.3 7.9 45.7 20.5 61.3 20.5 15.6 0 17.7-4 32.5 0s25.6 4.6 37.8 5.9c12.1 1.3 25 3.3 41.2 5.9 16.2 2.6 56-27 79-25.7 22.9 1.3 42.5 15.2 55.3 19.8 12.8 4.6 38.9 32.8 38.9 32.8l-66.6 50.3-642.6 4.6L.8 306.2z" fill="url(#SVGID_5_)"/><linearGradient id="SVGID_6_" gradientUnits="userSpaceOnUse" x1="388.717" y1="538.446" x2="400.588" y2="358.893"><stop offset="0" stop-color="#7495c3"/><stop offset=".184" stop-color="#6a8aba"/><stop offset=".508" stop-color="#4f6ca3"/><stop offset=".932" stop-color="#233c7e"/><stop offset="1" stop-color="#1b3477"/></linearGradient><path d="M63.9 336.6s35.6-6.4 55.7-6.4c20.2 0 49.4 2.7 75.4-5.3s30.2-7.4 55.2-4.2c24.9 3.2 55.3 8.1 55.3 8.1s36.5 6.3 55.6 7.9c19.1 1.6 44.6 0 44.6 0s44-8 64.7-5.8 29.7 14.3 53.6 18.6c23.9 4.2 38.2 7.4 49.9 6.4 11.7-1.1 28.7-11.1 48.8-16.5 20.2-5.3 38.7-15.4 88.1 3.7 49.4 19.1 17.5 30.2 17.5 30.2S579.2 439.6 461.9 446c-117.3 6.4-254.7-2.1-254.7-2.1L85.7 413.6l-21.8-77z" fill="url(#SVGID_6_)"/><path d="M.5 291.5s4.6-.5 11.8 0c7.2.5 15.1 17 17 17.5 1.9.5 2.9 1.9 3.3 3.4.3 1.5 5.1 11.5 7.5 12.7 2.4 1.2 2.9.2 4.1 1.5s2.7 2.4 2.7.9 2.4-9.6 4.8-6 2.6 11.8 4.6 11.2c2.1-.7 4.8-4.3 7.9-4.4 3.1-.1 5.3-.8 5.8-1.3s4.3-3.6 7-4.3c2.7-.7 3.4-3.1 6.7-3.8 3.3-.7 9.8.9 10.5 2.4.7 1.5 2.6 5.7 4.8 6.3 2.2.7 2.4 4.1 4.5 6.5s10.3 6.3 15.3 10.3c5 3.9 7.9 7.2 9.4 7 1.5-.2 1.4-2.4 1.4-2.4l1-2.2h2.6l.5 2.1v2.6l-.7 1.5 2.6 2.2s4.8 5.7 8.9 6c4.1.3 3.3-1.7 6.9 0 3.6 1.7 3.9 1.4 8.6 1.9 4.6.5 7.7-2.2 12-2.1 4.3.2 10.8 1.8 14.4 2.1 3.6.3 6.5-.2 8.8.8 2.2 1 3.3 2.1 6.7 4.3 3.4 2.2 12.5 3.1 18.5 6.9 6 3.8 20.4 15.1 25.6 16.8 5.1 1.7 32.1 12.2 36.9 12.5 4.8.3 4.3-1.5 8.8 0 4.5 1.5 24.7 9.4 37.1 8.9 12.4-.5 42.4.9 54.2 0 11.8-.9 16-2.9 21.8-5.3 5.8-2.4 22.8-5.1 29.7-6 6.9-.9 11.3-3.8 18.2-3.1 6.9.7 20.4 6.3 26.4 9.1 6 2.7 28.5 8.7 38 6.9 9.5-1.8 11.3-6.7 22.1-8.8 10.8-2.1 25.7 2.3 33.7.5 8-1.8 17.5-9 17.5-9s8.2-2.8 10-5.1c1.8-2.3 10.8-9.8 10.8-9.8s10.6-3.6 19-3.6c8.5 0 16.5-6.2 16.5-6.2s22.9-1 33.2-7.7c10.3-6.7 18-12 18-12s33.7-20.9 38.3-26.6c4.6-5.7 14.2-8.8 14.2-8.8v182H.5V291.5z" fill="#102866"/><linearGradient id="SVGID_7_" gradientUnits="userSpaceOnUse" x1="108.301" y1="182.804" x2="75.301" y2="193.304"><stop offset="0" stop-color="#9cb3d3"/><stop offset=".367" stop-color="#91abcf" stop-opacity=".633"/><stop offset="1" stop-color="#7495c3" stop-opacity="0"/></linearGradient><path d="M63.9 168.8s12.4 10.7 17.7 13.3c5.3 2.7 17.3 9.3 17.3 9.3l22.1 15.3s-30.5-7.3-39.6-15.3-17.5-11.3-17.5-11.3v-11.3z" fill="url(#SVGID_7_)"/><linearGradient id="SVGID_8_" gradientUnits="userSpaceOnUse" x1="238.892" y1="280.41" x2="234.565" y2="291.846"><stop offset="0" stop-color="#7495c3"/><stop offset=".275" stop-color="#698abd" stop-opacity=".722"/><stop offset=".76" stop-color="#4b6cac" stop-opacity=".232"/><stop offset=".99" stop-color="#3b5ca3" stop-opacity="0"/></linearGradient><path d="M161.6 266.2c8.5 4.3 24.6 11.7 41.4 16.1 24.8 6.5 42.4 12.9 56.9 15.5 14.5 2.7 51 12 50.8 11.5-.2-.5-31.7-10-38-12.3-5.9-2.2-10.1-3.3-7.1-5.3-15.3.4-65.3-15.3-96.8-23.8-2.6-.6-5-1.2-7.2-1.7z" fill="url(#SVGID_8_)"/><linearGradient id="SVGID_9_" gradientUnits="userSpaceOnUse" x1="321.892" y1="363.147" x2="323.884" y2="333.024"><stop offset="0" stop-color="#7495c3"/><stop offset=".184" stop-color="#6a8aba"/><stop offset=".508" stop-color="#4f6ca3"/><stop offset=".932" stop-color="#233c7e"/><stop offset="1" stop-color="#1b3477"/></linearGradient><path d="M397 354.3c-12.3-4.8-31.8-15.8-34-17.5-.6 0-1.3-.1-1.9-.1-19.1-1.6-55.6-7.9-55.6-7.9s-30.4-4.9-55.3-8.1c0 0 99.6 18.8 105.6 21.7s41.2 11.9 41.2 11.9z" fill="url(#SVGID_9_)"/></g></svg>